<?xml version="1.0" encoding="utf-8"?>
<!-- Generator: Adobe Illustrator 27.8.1, SVG Export Plug-In . SVG Version: 6.00 Build 0)  -->
<svg version="1.1" id="Layer_1" xmlns="http://www.w3.org/2000/svg" xmlns:xlink="http://www.w3.org/1999/xlink" x="0px" y="0px"
	 viewBox="0 0 1500 1500" style="enable-background:new 0 0 1500 1500;" xml:space="preserve">
<style type="text/css">
	.st0{fill:#0F0F0F;}
</style>
<g>
	<g>
		<path class="st0" d="M203.51,729.88c-10.84,31.92-41.08,54.97-76.62,54.97c-44.62,0-80.92-36.3-80.92-80.92
			c0-44.62,36.3-80.92,80.92-80.92c35.54,0,65.78,23.04,76.62,54.97h30.72c-11.7-48.41-55.39-84.48-107.34-84.48
			c-60.89,0-110.43,49.54-110.43,110.43S66,814.37,126.89,814.37c51.96,0,95.64-36.07,107.34-84.48H203.51z"/>
		<path class="st0" d="M220.7,686.56c-29.79,0-56.79,11.81-76.65,30.99v-82.57h-30.72v136.05h30.72v0c0-0.01,0-0.02,0-0.03h0.05
			c10.83-31.92,41.02-54.89,76.6-54.89c44.68,0,80.89,36.22,80.89,80.89s-36.22,80.89-80.89,80.89c-35.61,0-65.82-23.02-76.63-54.98
			h-30.71c11.66,48.48,55.28,84.51,107.33,84.51c60.98,0,110.42-49.44,110.42-110.42S281.68,686.56,220.7,686.56z"/>
	</g>
	<g>
		<g>
			<g>
				<path class="st0" d="M503.97,750.97c-10.59,10.59-23.41,15.89-38.44,15.89s-27.85-5.29-38.44-15.89
					c-10.59-10.59-15.89-23.41-15.89-38.44s5.29-27.85,15.89-38.44c10.59-10.59,23.41-15.89,38.44-15.89s27.85,5.3,38.44,15.89
					l0.12,0.12L487.6,690.7l-0.12-0.12c-6.06-6.06-13.38-9.1-21.95-9.1c-8.57,0-15.89,3.03-21.95,9.1
					c-6.06,6.06-9.1,13.38-9.1,21.95c0,8.57,3.03,15.89,9.1,21.95c6.06,6.06,13.38,9.1,21.95,9.1c8.57,0,15.89-3.03,21.95-9.1
					l0.12-0.12l16.49,16.49L503.97,750.97z"/>
				<path class="st0" d="M672.6,658.2h46.57v23.28h-43.05c-8.25,0.08-12.25,1.7-12.01,4.85c0,4.69,8.61,9.18,25.83,13.46
					c12.61,3.15,21.4,7.08,26.38,11.76c4.97,4.69,7.46,11.44,7.46,20.25c0,11.56-3.36,20.29-10.07,26.19
					c-6.71,5.9-16.53,8.85-29.47,8.85h-42.69l-0.12-23.28h42.2c10.19-0.4,15.48-3.07,15.89-8c0-4.2-3.32-7.16-9.94-8.85
					c-22.4-5.58-36-11.14-40.81-16.67c-4.81-5.54-7.22-12.23-7.22-20.07C641.56,668.62,651.9,658.04,672.6,658.2z"/>
				<path class="st0" d="M883.38,667.78c8.97-6.39,19.32-9.58,31.05-9.58c15.04,0,27.85,5.3,38.44,15.89
					c10.59,10.59,15.89,23.41,15.89,38.44s-5.3,27.85-15.89,38.44c-10.59,10.59-23.41,15.89-38.44,15.89s-27.85-5.29-38.44-15.89
					c-10.59-10.59-15.89-23.41-15.89-38.44v-85.37h23.28V667.78z M936.38,734.48c6.06-6.06,9.1-13.38,9.1-21.95
					c0-8.57-3.03-15.89-9.1-21.95c-6.06-6.06-13.38-9.1-21.95-9.1c-8.57,0-15.89,3.03-21.95,9.1c-6.06,6.06-9.1,13.38-9.1,21.95
					c0,8.57,3.03,15.89,9.1,21.95c6.06,6.06,13.38,9.1,21.95,9.1C922.99,743.57,930.31,740.54,936.38,734.48z"/>
				<path class="st0" d="M1006.32,627.15v139.71h-23.28V627.15H1006.32z"/>
				<path class="st0" d="M1166.83,766.86h-23.28v-54.33c0-15.04,5.29-27.85,15.89-38.44c10.59-10.59,23.41-15.89,38.44-15.89
					s27.85,5.3,38.44,15.89c10.59,10.59,15.89,23.41,15.89,38.44v54.33h-23.28v-54.33c0-8.57-3.03-15.89-9.1-21.95
					c-6.06-6.06-13.38-9.1-21.95-9.1c-8.57,0-15.89,3.03-21.95,9.1c-6.06,6.06-9.1,13.38-9.1,21.95V766.86z"/>
				<path class="st0" d="M1359.26,750.97c-10.59,10.59-23.41,15.89-38.44,15.89s-27.85-5.29-38.44-15.89
					c-10.59-10.59-15.89-23.41-15.89-38.44s5.29-27.85,15.89-38.44c10.59-10.59,23.41-15.89,38.44-15.89s27.85,5.3,38.44,15.89
					l0.12,0.12l-16.49,16.49l-0.12-0.12c-6.06-6.06-13.38-9.1-21.95-9.1c-8.57,0-15.89,3.03-21.95,9.1
					c-6.06,6.06-9.1,13.38-9.1,21.95c0,8.57,3.03,15.89,9.1,21.95c6.06,6.06,13.38,9.1,21.95,9.1c8.57,0,15.89-3.03,21.95-9.1
					l0.12-0.12l16.49,16.49L1359.26,750.97z"/>
				<path class="st0" d="M627.27,766.86h-23.28v-9.58c-8.97,6.39-19.32,9.58-31.05,9.58c-15.04,0-27.85-5.3-38.44-15.89
					c-10.59-10.59-15.89-23.41-15.89-38.44s5.29-27.85,15.89-38.44c10.59-10.59,23.41-15.89,38.44-15.89
					c15.04,0,27.85,5.29,38.44,15.89c10.59,10.59,15.89,23.41,15.89,38.44V766.86z M572.95,681.48c-8.57,0-15.89,3.03-21.95,9.1
					c-6.06,6.06-9.1,13.38-9.1,21.95c0,8.57,3.03,15.89,9.1,21.95c6.06,6.06,13.38,9.1,21.95,9.1c8.57,0,15.89-3.03,21.95-9.1
					c6.06-6.06,9.1-13.38,9.1-21.95c0-8.57-3.03-15.89-9.1-21.95C588.83,684.51,581.51,681.48,572.95,681.48z"/>
				<path class="st0" d="M842.11,766.86h-23.28v-9.58c-8.97,6.39-19.32,9.58-31.05,9.58c-15.04,0-27.85-5.3-38.44-15.89
					c-10.59-10.59-15.89-23.41-15.89-38.44s5.29-27.85,15.89-38.44c10.59-10.59,23.41-15.89,38.44-15.89
					c15.04,0,27.85,5.29,38.44,15.89c10.59,10.59,15.89,23.41,15.89,38.44V766.86z M787.78,681.48c-8.57,0-15.89,3.03-21.95,9.1
					c-6.06,6.06-9.1,13.38-9.1,21.95c0,8.57,3.03,15.89,9.1,21.95c6.06,6.06,13.38,9.1,21.95,9.1c8.57,0,15.89-3.03,21.95-9.1
					c6.06-6.06,9.1-13.38,9.1-21.95c0-8.57-3.03-15.89-9.1-21.95C803.67,684.51,796.35,681.48,787.78,681.48z"/>
				<path class="st0" d="M1129.26,766.86h-23.28v-9.58c-8.97,6.39-19.32,9.58-31.05,9.58c-15.04,0-27.85-5.3-38.44-15.89
					c-10.59-10.59-15.89-23.41-15.89-38.44s5.29-27.85,15.89-38.44c10.59-10.59,23.41-15.89,38.44-15.89s27.85,5.29,38.44,15.89
					c10.59,10.59,15.89,23.41,15.89,38.44V766.86z M1074.93,681.48c-8.57,0-15.89,3.03-21.95,9.1c-6.06,6.06-9.1,13.38-9.1,21.95
					c0,8.57,3.03,15.89,9.1,21.95c6.06,6.06,13.38,9.1,21.95,9.1c8.57,0,15.89-3.03,21.95-9.1c6.06-6.06,9.1-13.38,9.1-21.95
					c0-8.57-3.03-15.89-9.1-21.95C1090.82,684.51,1083.5,681.48,1074.93,681.48z"/>
				<path class="st0" d="M1482.56,766.86h-23.28v-9.58c-8.97,6.39-19.32,9.58-31.05,9.58c-15.04,0-27.85-5.3-38.44-15.89
					c-10.59-10.59-15.89-23.41-15.89-38.44s5.29-27.85,15.89-38.44c10.59-10.59,23.41-15.89,38.44-15.89s27.85,5.29,38.44,15.89
					c10.59,10.59,15.89,23.41,15.89,38.44V766.86z M1428.23,681.48c-8.57,0-15.89,3.03-21.95,9.1c-6.06,6.06-9.1,13.38-9.1,21.95
					c0,8.57,3.03,15.89,9.1,21.95c6.06,6.06,13.38,9.1,21.95,9.1c8.57,0,15.89-3.03,21.95-9.1c6.06-6.06,9.1-13.38,9.1-21.95
					c0-8.57-3.03-15.89-9.1-21.95C1444.12,684.51,1436.8,681.48,1428.23,681.48z"/>
			</g>
		</g>
		<g>
			<g>
				<path class="st0" d="M416.85,814.14h3.18v58.77h-3.18V814.14z"/>
				<path class="st0" d="M472.16,814.14h3.3l40.48,57.55l-4.48-4.15h1.71v-53.39h3.18v58.77h-3.3l-40.48-57.55l4.48,4.16h-1.71
					v53.39h-3.18V814.14z"/>
				<path class="st0" d="M564.12,814.14h3.42l20.57,54.66h0.08l20.57-54.66h3.42l-22.4,58.77h-3.22L564.12,814.14z"/>
				<path class="st0" d="M659.95,814.14h34.25v2.93h-31.08v24.23h29.57v2.93h-29.57v25.74h31.08v2.93h-34.25V814.14z"/>
				<path class="st0" d="M750.75,871.77c-3.11-1.33-5.57-3.22-7.39-5.66c-1.82-2.44-2.85-5.29-3.09-8.55l-0.04-0.53h3.22l0.04,0.53
					c0.27,2.66,1.19,4.98,2.75,6.96c1.56,1.98,3.65,3.52,6.27,4.62c2.62,1.1,5.64,1.65,9.06,1.65c3.39,0,6.37-0.54,8.92-1.61
					c2.55-1.07,4.53-2.57,5.95-4.5c1.41-1.93,2.12-4.18,2.12-6.76v-0.04c0-3.31-1.11-5.95-3.32-7.9c-2.21-1.95-5.91-3.53-11.1-4.72
					l-6.31-1.43c-5.62-1.3-9.71-3.17-12.28-5.6c-2.57-2.43-3.85-5.64-3.85-9.63v-0.08c0.03-2.96,0.87-5.59,2.53-7.88
					c1.66-2.29,3.92-4.09,6.8-5.4c2.88-1.3,6.15-1.95,9.82-1.95c3.72,0,7.03,0.67,9.94,2.02c2.9,1.34,5.23,3.24,6.96,5.68
					c1.74,2.44,2.73,5.28,2.97,8.51l0.04,0.53h-3.18l-0.08-0.53c-0.24-2.69-1.1-5.02-2.57-6.98c-1.47-1.97-3.4-3.5-5.8-4.6
					c-2.4-1.1-5.18-1.65-8.33-1.65c-3.12,0-5.87,0.52-8.25,1.55c-2.38,1.03-4.24,2.46-5.58,4.3c-1.34,1.83-2.02,3.96-2.02,6.37v0.04
					c0,3.18,1.1,5.75,3.3,7.72c2.2,1.97,5.72,3.51,10.55,4.62l6.35,1.47c5.97,1.36,10.24,3.24,12.81,5.64
					c2.57,2.4,3.85,5.67,3.85,9.79v0.04c0,3.2-0.85,6-2.55,8.39c-1.7,2.39-4.07,4.25-7.13,5.58c-3.06,1.33-6.62,2-10.69,2
					C757.42,873.76,753.86,873.1,750.75,871.77z"/>
				<path class="st0" d="M845.38,817.07h-20.61v-2.93h44.39v2.93h-20.61v55.84h-3.18V817.07z"/>
				<path class="st0" d="M916.94,814.14h3.18v58.77h-3.18V814.14z"/>
				<path class="st0" d="M972.25,814.14h3.58l23.74,54.74h0.2l23.74-54.74h3.63v58.77h-3.06v-52.17h-1.75l3.99-5.78l-25.13,57.95
					h-3.06l-25.13-57.95l4.03,5.78h-1.75v52.17h-3.05V814.14z"/>
				<path class="st0" d="M1079.24,814.14h34.25v2.93h-31.07v24.23h29.57v2.93h-29.57v25.74h31.07v2.93h-34.25V814.14z"/>
				<path class="st0" d="M1164.44,814.14h3.3l40.48,57.55l-4.48-4.15h1.71v-53.39h3.18v58.77h-3.3l-40.48-57.55l4.48,4.16h-1.71
					v53.39h-3.18V814.14z"/>
				<path class="st0" d="M1277.01,817.07h-20.61v-2.93h44.39v2.93h-20.61v55.84h-3.18V817.07z"/>
				<path class="st0" d="M1354.11,870.08c-3.94-2.46-6.97-5.95-9.1-10.49c-2.13-4.53-3.2-9.9-3.2-16.09v-0.08
					c0-6.16,1.07-11.49,3.22-15.99c2.15-4.49,5.17-7.98,9.08-10.45c3.91-2.47,8.53-3.71,13.85-3.71c5.4,0,10.05,1.24,13.95,3.71
					c3.9,2.47,6.91,5.96,9.04,10.47c2.13,4.51,3.2,9.83,3.2,15.96v0.08c0,6.19-1.07,11.55-3.2,16.09
					c-2.13,4.54-5.14,8.03-9.04,10.49c-3.9,2.46-8.52,3.69-13.87,3.69C1362.69,873.76,1358.04,872.54,1354.11,870.08z
					 M1380.21,867.41c3.42-2.25,6.06-5.42,7.92-9.51c1.86-4.09,2.79-8.88,2.79-14.4v-0.08c0-5.54-0.94-10.34-2.81-14.4
					c-1.87-4.06-4.53-7.2-7.96-9.43c-3.44-2.23-7.5-3.34-12.2-3.34c-4.64,0-8.68,1.11-12.12,3.34c-3.43,2.23-6.09,5.37-7.96,9.43
					c-1.87,4.06-2.81,8.86-2.81,14.4v0.08c0,5.54,0.94,10.35,2.81,14.44c1.87,4.09,4.54,7.25,7.98,9.49
					c3.45,2.24,7.51,3.36,12.18,3.36C1372.73,870.79,1376.79,869.67,1380.21,867.41z"/>
				<path class="st0" d="M1451.51,871.77c-3.11-1.33-5.57-3.22-7.39-5.66c-1.82-2.44-2.85-5.29-3.1-8.55l-0.04-0.53h3.22l0.04,0.53
					c0.27,2.66,1.19,4.98,2.75,6.96c1.56,1.98,3.65,3.52,6.27,4.62c2.62,1.1,5.64,1.65,9.06,1.65c3.39,0,6.37-0.54,8.92-1.61
					s4.54-2.57,5.95-4.5c1.41-1.93,2.12-4.18,2.12-6.76v-0.04c0-3.31-1.11-5.95-3.32-7.9c-2.21-1.95-5.91-3.53-11.1-4.72l-6.31-1.43
					c-5.62-1.3-9.71-3.17-12.28-5.6c-2.56-2.43-3.85-5.64-3.85-9.63v-0.08c0.02-2.96,0.87-5.59,2.52-7.88
					c1.66-2.29,3.92-4.09,6.8-5.4c2.88-1.3,6.15-1.95,9.81-1.95c3.72,0,7.03,0.67,9.94,2.02c2.91,1.34,5.23,3.24,6.96,5.68
					c1.74,2.44,2.73,5.28,2.97,8.51l0.04,0.53h-3.18l-0.08-0.53c-0.24-2.69-1.1-5.02-2.56-6.98c-1.47-1.97-3.4-3.5-5.8-4.6
					s-5.18-1.65-8.33-1.65c-3.12,0-5.87,0.52-8.25,1.55c-2.38,1.03-4.24,2.46-5.58,4.3c-1.34,1.83-2.02,3.96-2.02,6.37v0.04
					c0,3.18,1.1,5.75,3.3,7.72c2.2,1.97,5.71,3.51,10.55,4.62l6.35,1.47c5.97,1.36,10.24,3.24,12.81,5.64
					c2.57,2.4,3.85,5.67,3.85,9.79v0.04c0,3.2-0.85,6-2.55,8.39c-1.7,2.39-4.07,4.25-7.13,5.58c-3.06,1.33-6.62,2-10.69,2
					C1458.18,873.76,1454.61,873.1,1451.51,871.77z"/>
			</g>
		</g>
	</g>
</g>
</svg>
